<?xml version="1.0" standalone="no"?>
<!DOCTYPE svg PUBLIC "-//W3C//DTD SVG 20010904//EN"
 "http://www.w3.org/TR/2001/REC-SVG-20010904/DTD/svg10.dtd">
<svg version="1.0" xmlns="http://www.w3.org/2000/svg"
 width="200.000000pt" height="200.000000pt" viewBox="0 0 200.000000 200.000000"
 preserveAspectRatio="xMidYMid meet">
<metadata>
Created by potrace 1.10, written by Peter Selinger 2001-2011
</metadata>
<g transform="translate(0.000000,200.000000) scale(0.100000,-0.100000)"
fill="#8d6bc7" stroke="none">
<path d="M845 1935 c-324 -53 -588 -270 -712 -585 -156 -394 -11 -858 342
-1097 236 -159 549 -205 805 -118 162 55 328 163 416 272 21 26 42 53 47 58
19 24 74 114 91 150 132 282 119 607 -35 870 -145 248 -380 409 -659 450 -114
17 -188 17 -295 0z m353 -244 c261 -80 445 -294 489 -568 16 -99 16 -110 -1
-211 -85 -507 -638 -754 -1071 -477 -63 40 -150 125 -193 188 -87 130 -117
230 -117 397 1 134 13 195 63 299 97 207 299 358 527 395 62 9 240 -4 303 -23z"/>
<path d="M851 1371 c-17 -31 -15 -682 2 -705 12 -16 23 -10 133 71 351 257
367 271 329 313 -17 19 -377 292 -427 324 -25 17 -27 17 -37 -3z"/>
</g>
</svg>
